<svg width="86" height="26" viewBox="0 0 86 26" fill="none" xmlns="http://www.w3.org/2000/svg">
<path d="M22.4094 5.42863C22.3208 5.42863 22.2321 5.42347 22.1461 5.41574C22.0575 5.40543 21.9715 5.39254 21.8855 5.3745C21.7135 5.34099 21.5441 5.28943 21.3826 5.22241C21.2184 5.15539 21.0646 5.07291 20.9187 4.97753C20.8457 4.93113 20.7754 4.877 20.705 4.82287C20.6372 4.76874 20.5721 4.70945 20.5095 4.64759C20.447 4.58572 20.3871 4.52128 20.3323 4.45168C20.2776 4.38466 20.2255 4.31506 20.1786 4.24289C20.0822 4.09854 19.9988 3.94387 19.931 3.78406C19.8632 3.62424 19.8111 3.45669 19.7773 3.28656C19.759 3.2015 19.746 3.11386 19.7382 3.02879C19.7303 2.94115 19.7251 2.85351 19.7251 2.76845C19.7251 2.68338 19.7303 2.59316 19.7382 2.5081C19.746 2.42046 19.759 2.33539 19.7773 2.25033C19.8111 2.0802 19.8632 1.91265 19.931 1.75283C19.9988 1.59044 20.0822 1.43835 20.1786 1.294C20.2255 1.22183 20.2802 1.15223 20.3323 1.08263C20.3871 1.01561 20.4496 0.95117 20.5095 0.889305C20.5695 0.82744 20.6372 0.768153 20.705 0.714022C20.7728 0.65989 20.8457 0.608336 20.9187 0.55936C21.0646 0.463985 21.2184 0.384076 21.3826 0.317056C21.5441 0.250036 21.7135 0.198482 21.8855 0.164972C21.9715 0.146928 22.0575 0.13404 22.1461 0.126307C22.3234 0.108263 22.498 0.108263 22.6752 0.126307C22.7612 0.13404 22.8498 0.146928 22.9358 0.164972C23.1078 0.198482 23.2772 0.250036 23.4387 0.317056C23.6003 0.384076 23.7567 0.463985 23.9026 0.55936C23.9756 0.608336 24.046 0.662468 24.1137 0.714022C24.1815 0.768153 24.2492 0.830018 24.3118 0.889305C24.3743 0.95117 24.4317 1.01561 24.489 1.08263C24.5437 1.14965 24.5984 1.22183 24.6453 1.294C24.7418 1.43835 24.8252 1.59044 24.8929 1.75283C24.9607 1.91265 25.0102 2.0802 25.0467 2.25033C25.0649 2.33539 25.078 2.42046 25.0884 2.5081C25.0962 2.59574 25.1014 2.68338 25.1014 2.76845C25.1014 2.85351 25.0962 2.94373 25.0884 3.02879C25.0806 3.11386 25.0649 3.2015 25.0467 3.28656C25.0128 3.45669 24.9607 3.62166 24.8929 3.78406C24.8252 3.94387 24.7418 4.09854 24.6453 4.24289C24.5984 4.31506 24.5437 4.38466 24.489 4.45168C24.4343 4.5187 24.3743 4.58572 24.3118 4.64759C24.2492 4.70945 24.1841 4.76616 24.1137 4.82287C24.046 4.877 23.9756 4.93113 23.9026 4.97753C23.7567 5.07291 23.6003 5.15539 23.4387 5.22241C23.2772 5.28943 23.1078 5.33841 22.9358 5.3745C22.8498 5.39254 22.7612 5.40543 22.6752 5.41574C22.5866 5.42347 22.498 5.42863 22.412 5.42863H22.4094Z" fill="#242020"/>
<path d="M22.4094 5.42863C22.3208 5.42863 22.2321 5.42347 22.1461 5.41574C22.0575 5.40543 21.9715 5.39254 21.8855 5.3745C21.7135 5.34099 21.5441 5.28943 21.3826 5.22241C21.2184 5.15539 21.0646 5.07291 20.9187 4.97753C20.8457 4.93113 20.7754 4.877 20.705 4.82287C20.6372 4.76874 20.5721 4.70945 20.5095 4.64759C20.447 4.58572 20.3871 4.52128 20.3323 4.45168C20.2776 4.38466 20.2255 4.31506 20.1786 4.24289C20.0822 4.09854 19.9988 3.94387 19.931 3.78406C19.8632 3.62424 19.8111 3.45669 19.7773 3.28656C19.759 3.2015 19.746 3.11386 19.7382 3.02879C19.7303 2.94115 19.7251 2.85351 19.7251 2.76845C19.7251 2.68338 19.7303 2.59316 19.7382 2.5081C19.746 2.42046 19.759 2.33539 19.7773 2.25033C19.8111 2.0802 19.8632 1.91265 19.931 1.75283C19.9988 1.59044 20.0822 1.43835 20.1786 1.294C20.2255 1.22183 20.2802 1.15223 20.3323 1.08263C20.3871 1.01561 20.4496 0.95117 20.5095 0.889305C20.5695 0.82744 20.6372 0.768153 20.705 0.714022C20.7728 0.65989 20.8457 0.608336 20.9187 0.55936C21.0646 0.463985 21.2184 0.384076 21.3826 0.317056C21.5441 0.250036 21.7135 0.198482 21.8855 0.164972C21.9715 0.146928 22.0575 0.13404 22.1461 0.126307C22.3234 0.108263 22.498 0.108263 22.6752 0.126307C22.7612 0.13404 22.8498 0.146928 22.9358 0.164972C23.1078 0.198482 23.2772 0.250036 23.4387 0.317056C23.6003 0.384076 23.7567 0.463985 23.9026 0.55936C23.9756 0.608336 24.046 0.662468 24.1137 0.714022C24.1815 0.768153 24.2492 0.830018 24.3118 0.889305C24.3743 0.95117 24.4317 1.01561 24.489 1.08263C24.5437 1.14965 24.5984 1.22183 24.6453 1.294C24.7418 1.43835 24.8252 1.59044 24.8929 1.75283C24.9607 1.91265 25.0102 2.0802 25.0467 2.25033C25.0649 2.33539 25.078 2.42046 25.0884 2.5081C25.0962 2.59574 25.1014 2.68338 25.1014 2.76845C25.1014 2.85351 25.0962 2.94373 25.0884 3.02879C25.0806 3.11386 25.0649 3.2015 25.0467 3.28656C25.0128 3.45669 24.9607 3.62166 24.8929 3.78406C24.8252 3.94387 24.7418 4.09854 24.6453 4.24289C24.5984 4.31506 24.5437 4.38466 24.489 4.45168C24.4343 4.5187 24.3743 4.58572 24.3118 4.64759C24.2492 4.70945 24.1841 4.76616 24.1137 4.82287C24.046 4.877 23.9756 4.93113 23.9026 4.97753C23.7567 5.07291 23.6003 5.15539 23.4387 5.22241C23.2772 5.28943 23.1078 5.33841 22.9358 5.3745C22.8498 5.39254 22.7612 5.40543 22.6752 5.41574C22.5866 5.42347 22.498 5.42863 22.412 5.42863H22.4094Z" fill="#D1644C"/>
<path d="M73.1856 14.8733C73.097 14.8733 73.0084 14.8682 72.9224 14.8604C72.8364 14.8527 72.7477 14.8398 72.6617 14.8218C72.4897 14.7883 72.3204 14.7367 72.1588 14.6697C71.9972 14.6027 71.8408 14.5228 71.6949 14.4274C71.6219 14.3784 71.5516 14.3243 71.4838 14.2727C71.4161 14.2186 71.3483 14.1567 71.2858 14.0974C71.2232 14.0381 71.1659 13.9711 71.1085 13.9041C71.0538 13.8371 70.9991 13.7649 70.9522 13.6927C70.8558 13.5484 70.7724 13.3963 70.7046 13.2339C70.6369 13.0741 70.5873 12.9065 70.5509 12.7364C70.5326 12.6539 70.5196 12.5663 70.5092 12.4786C70.4987 12.391 70.4961 12.3034 70.4961 12.2183C70.4961 12.1332 70.5013 12.043 70.5092 11.9579C70.517 11.8729 70.5326 11.7852 70.5509 11.7002C70.5847 11.53 70.6369 11.3651 70.7046 11.2027C70.7724 11.0429 70.8558 10.8882 70.9522 10.7439C70.9991 10.6717 71.0538 10.6021 71.1085 10.5351C71.1633 10.468 71.2232 10.401 71.2858 10.3392C71.3483 10.2799 71.4135 10.2206 71.4838 10.1639C71.5516 10.1097 71.6219 10.0582 71.6949 10.0092C71.8408 9.91384 71.9972 9.83135 72.1588 9.76433C72.3204 9.69731 72.4897 9.64833 72.6617 9.61224C72.7477 9.5942 72.8364 9.58131 72.9224 9.571C73.0996 9.55296 73.2742 9.55296 73.4514 9.571C73.54 9.57873 73.626 9.5942 73.712 9.61224C73.884 9.64575 74.0534 9.69731 74.215 9.76433C74.3791 9.83135 74.5329 9.91384 74.6788 10.0092C74.7518 10.0582 74.8222 10.1097 74.8925 10.1639C74.9603 10.218 75.0254 10.2799 75.088 10.3392C75.1505 10.401 75.2079 10.4655 75.2652 10.5351C75.3199 10.6021 75.3747 10.6717 75.4216 10.7439C75.518 10.8882 75.6014 11.0429 75.6691 11.2027C75.7369 11.3651 75.789 11.53 75.8229 11.7002C75.8411 11.7852 75.8542 11.8729 75.862 11.9579C75.8698 12.0456 75.875 12.1332 75.875 12.2183C75.875 12.3034 75.8698 12.3936 75.862 12.4786C75.8542 12.5637 75.8411 12.6539 75.8229 12.7364C75.789 12.9065 75.7369 13.0741 75.6691 13.2339C75.6014 13.3963 75.518 13.5484 75.4216 13.6927C75.3747 13.7649 75.3199 13.8345 75.2652 13.9041C75.2105 13.9711 75.1505 14.0356 75.088 14.0974C75.0254 14.1593 74.9577 14.2186 74.8925 14.2727C74.8248 14.3269 74.7518 14.3784 74.6788 14.4274C74.5329 14.5228 74.3791 14.6027 74.215 14.6697C74.0534 14.7367 73.884 14.7883 73.712 14.8218C73.626 14.8398 73.54 14.8527 73.4514 14.8604C73.3628 14.8682 73.2742 14.8733 73.1882 14.8733H73.1856Z" fill="#586FB1"/>
<path d="M85.5382 12.2183C85.5382 12.1332 85.533 12.043 85.5252 11.9579C85.5174 11.8729 85.5044 11.7852 85.4861 11.7002C85.4523 11.53 85.4001 11.3651 85.3324 11.2027C85.2646 11.0428 85.1812 10.8882 85.0848 10.7438C85.0379 10.6717 84.9832 10.6021 84.9284 10.535C84.8737 10.468 84.8138 10.401 84.7512 10.3391C84.6887 10.2799 84.6209 10.2206 84.5558 10.1639C84.488 10.1097 84.415 10.0582 84.3421 10.0092C84.1961 9.91382 84.0424 9.83133 83.8782 9.76431C83.7166 9.69729 83.5472 9.64832 83.3752 9.61223C83.2892 9.59418 83.2032 9.5813 83.1146 9.57098C82.9374 9.55294 82.7628 9.55294 82.5856 9.57098C82.4996 9.57872 82.411 9.59418 82.325 9.61223C82.153 9.64574 81.9836 9.69729 81.822 9.76431C81.6605 9.83133 81.5041 9.91382 81.3582 10.0092C81.2852 10.0582 81.2148 10.1097 81.1471 10.1639C81.0793 10.218 81.0115 10.2799 80.949 10.3391C80.8865 10.401 80.8291 10.4654 80.7718 10.535C80.7171 10.6021 80.6623 10.6717 80.6154 10.7438C80.519 10.8882 80.4356 11.0428 80.3678 11.2027C80.3001 11.3651 80.2506 11.53 80.2141 11.7002C80.1959 11.7852 80.1828 11.8729 80.1724 11.9579C80.1646 12.0456 80.1594 12.1332 80.1594 12.2183C80.1594 16.0255 77.0269 19.1239 73.1778 19.1239C69.3286 19.1239 66.1962 16.0255 66.1962 12.2183C66.1962 8.41102 69.3286 5.31263 73.1778 5.31263H75.8359V0H73.1413C66.3473 0.0206216 60.8277 5.49307 60.8277 12.2183C60.8277 18.9435 66.3682 24.4366 73.1804 24.4366C75.7864 24.4366 78.2022 23.6323 80.1985 22.2661C80.3965 23.5421 81.5067 24.519 82.8488 24.519C84.3317 24.519 85.533 23.3307 85.533 21.864V12.9503C85.533 12.8679 85.5278 12.7854 85.52 12.7055C85.5252 12.5431 85.533 12.3833 85.533 12.2183H85.5382Z" fill="#21232F"/>
<path d="M22.4094 5.4286C22.3208 5.4286 22.2322 5.42345 22.1462 5.41571C22.0602 5.40798 21.9716 5.39509 21.8856 5.37705C21.7136 5.34354 21.5442 5.29198 21.3826 5.22496C21.221 5.15794 21.0647 5.07546 20.9187 4.98008C20.8458 4.93111 20.7754 4.87955 20.705 4.82542C20.6373 4.77129 20.5721 4.70942 20.5096 4.65014C20.447 4.59085 20.3897 4.52383 20.3324 4.45681C20.2776 4.38979 20.2229 4.31761 20.176 4.24544C20.0796 4.10367 19.9962 3.949 19.9284 3.78919C19.8607 3.62679 19.8112 3.45924 19.7747 3.29169C19.7564 3.20663 19.7434 3.11899 19.733 3.03134C19.7252 2.94628 19.7199 2.85606 19.7199 2.771C19.7199 2.07244 20.0066 1.38677 20.507 0.894435C20.5695 0.83257 20.6347 0.773283 20.7024 0.719151C20.7702 0.66502 20.8431 0.613466 20.9161 0.564489C21.0621 0.469115 21.2184 0.386628 21.38 0.319608C21.5416 0.252588 21.711 0.203612 21.883 0.167524C21.969 0.14948 22.0576 0.136592 22.1436 0.128859C22.3208 0.110815 22.4954 0.110815 22.6726 0.128859C22.7586 0.136592 22.8472 0.14948 22.9332 0.167524C23.1052 0.201034 23.2746 0.252588 23.4362 0.319608C23.6003 0.386628 23.7541 0.469115 23.9 0.564489C23.973 0.613466 24.0434 0.66502 24.1137 0.719151C24.1815 0.773283 24.2466 0.835148 24.3092 0.894435C24.8096 1.38677 25.0962 2.07244 25.0962 2.771C25.0962 2.85864 25.091 2.94628 25.0832 3.03134C25.0754 3.11899 25.0623 3.20663 25.0441 3.29169C25.0102 3.45924 24.9581 3.62679 24.8903 3.78919C24.8226 3.949 24.7392 4.10367 24.6428 4.24544C24.5959 4.31761 24.5411 4.38979 24.489 4.45681C24.4343 4.52383 24.3717 4.59085 24.3118 4.65014C24.2493 4.712 24.1841 4.77129 24.1163 4.82542C24.0486 4.87955 23.9756 4.93111 23.9026 4.98008C23.7567 5.07546 23.603 5.15537 23.4388 5.22496C23.2772 5.29198 23.1078 5.34096 22.9358 5.37705C22.8498 5.39509 22.7612 5.40798 22.6752 5.41571C22.5866 5.42345 22.498 5.4286 22.412 5.4286H22.4094Z" fill="#221F20"/>
<path d="M22.4094 5.4286C22.3208 5.4286 22.2322 5.42345 22.1462 5.41571C22.0602 5.40798 21.9716 5.39509 21.8856 5.37705C21.7136 5.34354 21.5442 5.29198 21.3826 5.22496C21.221 5.15794 21.0647 5.07546 20.9187 4.98008C20.8458 4.93111 20.7754 4.87955 20.705 4.82542C20.6373 4.77129 20.5721 4.70942 20.5096 4.65014C20.447 4.59085 20.3897 4.52383 20.3324 4.45681C20.2776 4.38979 20.2229 4.31761 20.176 4.24544C20.0796 4.10367 19.9962 3.949 19.9284 3.78919C19.8607 3.62679 19.8112 3.45924 19.7747 3.29169C19.7564 3.20663 19.7434 3.11899 19.733 3.03134C19.7252 2.94628 19.7199 2.85606 19.7199 2.771C19.7199 2.07244 20.0066 1.38677 20.507 0.894435C20.5695 0.83257 20.6347 0.773283 20.7024 0.719151C20.7702 0.66502 20.8431 0.613466 20.9161 0.564489C21.0621 0.469115 21.2184 0.386628 21.38 0.319608C21.5416 0.252588 21.711 0.203612 21.883 0.167524C21.969 0.14948 22.0576 0.136592 22.1436 0.128859C22.3208 0.110815 22.4954 0.110815 22.6726 0.128859C22.7586 0.136592 22.8472 0.14948 22.9332 0.167524C23.1052 0.201034 23.2746 0.252588 23.4362 0.319608C23.6003 0.386628 23.7541 0.469115 23.9 0.564489C23.973 0.613466 24.0434 0.66502 24.1137 0.719151C24.1815 0.773283 24.2466 0.835148 24.3092 0.894435C24.8096 1.38677 25.0962 2.07244 25.0962 2.771C25.0962 2.85864 25.091 2.94628 25.0832 3.03134C25.0754 3.11899 25.0623 3.20663 25.0441 3.29169C25.0102 3.45924 24.9581 3.62679 24.8903 3.78919C24.8226 3.949 24.7392 4.10367 24.6428 4.24544C24.5959 4.31761 24.5411 4.38979 24.489 4.45681C24.4343 4.52383 24.3717 4.59085 24.3118 4.65014C24.2493 4.712 24.1841 4.77129 24.1163 4.82542C24.0486 4.87955 23.9756 4.93111 23.9026 4.98008C23.7567 5.07546 23.603 5.15537 23.4388 5.22496C23.2772 5.29198 23.1078 5.34096 22.9358 5.37705C22.8498 5.39509 22.7612 5.40798 22.6752 5.41571C22.5866 5.42345 22.498 5.4286 22.412 5.4286H22.4094Z" fill="#D1644C"/>
<path d="M25.0441 21.7687C24.9451 21.266 24.7001 20.7866 24.3066 20.3973L4.58925 0.894481C4.58925 0.894481 4.58143 0.886748 4.57622 0.884171C4.51628 0.827461 4.45634 0.770752 4.39119 0.719198C4.35731 0.693421 4.32343 0.670222 4.28956 0.644445C4.25307 0.618668 4.21659 0.590313 4.1801 0.564536C4.14101 0.538759 4.09931 0.51556 4.06022 0.492361C4.02635 0.471739 3.99247 0.451118 3.95598 0.430496C3.91429 0.409874 3.87259 0.389253 3.83089 0.371209C3.79441 0.353165 3.75532 0.335121 3.71883 0.319655C3.67713 0.304189 3.63544 0.288723 3.59374 0.275834C3.55204 0.260368 3.51295 0.244902 3.46865 0.232013C3.42695 0.219125 3.38526 0.211392 3.34356 0.201081C3.30186 0.19077 3.25756 0.177882 3.21326 0.170149C3.16374 0.159838 3.11423 0.154683 3.06471 0.14695C3.02823 0.141794 2.99174 0.134061 2.95265 0.131483C2.77544 0.113439 2.59823 0.113439 2.42102 0.131483C2.38193 0.134061 2.34544 0.141794 2.30635 0.14695C2.25684 0.154683 2.20993 0.159838 2.16041 0.167571C2.11611 0.175304 2.07181 0.188193 2.02751 0.198503C1.98581 0.208814 1.94672 0.216547 1.90502 0.229436C1.86072 0.242324 1.81902 0.25779 1.77733 0.273257C1.73823 0.288723 1.69654 0.301611 1.65745 0.317077C1.61836 0.332544 1.57927 0.353165 1.54017 0.371209C1.50108 0.389253 1.45939 0.407297 1.4203 0.427918C1.38121 0.44854 1.34733 0.471739 1.31084 0.492361C1.30042 0.497516 1.2926 0.502672 1.28218 0.507827C1.25351 0.525871 1.22484 0.541337 1.19618 0.559381C1.15709 0.585158 1.11799 0.61609 1.0789 0.644445C1.04763 0.667644 1.01375 0.690843 0.98248 0.714043C0.917329 0.768174 0.852178 0.824884 0.792239 0.884171C0.792239 0.884171 0.787027 0.886748 0.787027 0.889326C0.787027 0.891904 0.784421 0.894481 0.781815 0.894481C0.721875 0.953768 0.664542 1.01821 0.609815 1.08265C0.583755 1.11359 0.5603 1.1471 0.536846 1.17803C0.508179 1.21669 0.479513 1.25278 0.453452 1.29145C0.427392 1.33011 0.406544 1.36878 0.383089 1.40744C0.362241 1.44353 0.338786 1.47704 0.317938 1.51571C0.29709 1.55437 0.278847 1.59561 0.260605 1.63686C0.242363 1.67552 0.22412 1.71419 0.205878 1.75285C0.190242 1.79152 0.177211 1.83018 0.161575 1.87143C0.145939 1.91267 0.130302 1.95649 0.117272 2.00031C0.104242 2.03898 0.0964238 2.08022 0.0859996 2.11889C0.0755754 2.16271 0.0625452 2.20653 0.052121 2.25293C0.0416968 2.29933 0.0364847 2.34572 0.0312726 2.38954C0.0260605 2.42821 0.0182423 2.46945 0.0130302 2.50812C0.0052121 2.5906 0 2.67567 0 2.75816C0 2.76073 0 2.76589 0 2.76847V22.3796C0 22.3796 0 22.3796 0 22.3822V25.0346H2.68423H5.36846V9.1792L20.5018 24.1479C21.0256 24.666 21.7136 24.9263 22.4016 24.9263C23.0896 24.9263 23.775 24.666 24.3014 24.1479C24.9581 23.4983 25.2031 22.5987 25.0389 21.7635L25.0441 21.7687Z" fill="#21232F"/>
<path d="M54.5055 23.9829C54.5081 23.9777 54.5133 23.97 54.5159 23.9648C54.5602 23.8978 54.6045 23.8282 54.6436 23.756C54.6567 23.7303 54.6671 23.7045 54.6801 23.6787C54.7062 23.6272 54.7322 23.573 54.7557 23.5189C54.7713 23.4828 54.7844 23.4441 54.7974 23.4055C54.813 23.3617 54.8313 23.3178 54.8443 23.274C54.8599 23.225 54.8704 23.1761 54.8808 23.1297C54.8886 23.0936 54.899 23.0601 54.9068 23.024C54.9199 22.9621 54.9277 22.8977 54.9355 22.8358C54.9381 22.8126 54.9433 22.7894 54.9459 22.7662C54.9564 22.6734 54.959 22.5832 54.959 22.4904V0H49.5879V17.518L44.2559 13.9788C44.2559 13.9788 44.2507 13.9788 44.2507 13.9763C44.1855 13.935 44.1204 13.8964 44.0552 13.8603C44.0422 13.8525 44.0318 13.8448 44.0188 13.8396C43.964 13.8113 43.9067 13.7855 43.8494 13.7597C43.8233 13.7494 43.7999 13.7365 43.7738 13.7237C43.7686 13.7237 43.7634 13.7211 43.7582 13.7185C43.5236 13.6257 43.2786 13.5664 43.0363 13.5432C43.0337 13.5432 43.0285 13.5432 43.0259 13.5432C43.0233 13.5432 43.0206 13.5432 43.0154 13.5432C42.9633 13.5381 42.9112 13.5381 42.8591 13.5355C42.8278 13.5355 42.7939 13.5303 42.7626 13.5303C42.7314 13.5303 42.7001 13.5329 42.6688 13.5355C42.6167 13.5355 42.562 13.5355 42.5099 13.5432C42.5073 13.5432 42.5046 13.5432 42.4994 13.5432C42.4968 13.5432 42.4916 13.5432 42.489 13.5432C42.4239 13.5509 42.3561 13.5587 42.291 13.5716C42.2779 13.5716 42.2623 13.5741 42.2493 13.5767C42.1685 13.5922 42.0877 13.6128 42.0069 13.636C42.0017 13.636 41.9991 13.636 41.9939 13.6386C41.9261 13.6592 41.8583 13.685 41.7906 13.7108C41.7776 13.7159 41.7619 13.7211 41.7489 13.7262C41.7254 13.734 41.7046 13.7469 41.6837 13.7572C41.6238 13.7829 41.5639 13.8087 41.5039 13.8396C41.4935 13.8448 41.4831 13.8525 41.4727 13.8577C41.4023 13.8964 41.3345 13.935 41.2694 13.9788C41.2694 13.9788 41.2668 13.9788 41.2642 13.9814L31.7495 20.2994C30.595 21.0649 30.2354 22.5651 30.8765 23.7509C30.9182 23.8308 30.9651 23.9081 31.0172 23.9829C31.124 24.1401 31.2465 24.2793 31.3794 24.4056C31.4081 24.434 31.4342 24.4623 31.4628 24.4881C31.4758 24.501 31.4915 24.5087 31.5071 24.5216C31.9997 24.9366 32.6199 25.1583 33.2506 25.1583C33.764 25.1583 34.2852 25.0114 34.7438 24.7072L42.76 19.3843L50.7684 24.7021C50.7684 24.7021 50.7762 24.7072 50.7815 24.7098C50.844 24.751 50.9092 24.7897 50.9717 24.8258C50.9952 24.8387 51.0212 24.8516 51.0447 24.8645C51.0916 24.8877 51.1385 24.9109 51.1854 24.9315C51.1984 24.9366 51.2115 24.9444 51.2245 24.9495C51.2375 24.9547 51.2505 24.9573 51.261 24.9624C51.3183 24.9856 51.373 25.0062 51.4304 25.0243C51.4486 25.0294 51.4642 25.0372 51.4825 25.0423C51.5581 25.0655 51.6362 25.0861 51.7144 25.1016C51.7301 25.1042 51.7457 25.1068 51.7613 25.1093C51.8291 25.1222 51.8942 25.1325 51.962 25.1403C51.9802 25.1403 52.0011 25.1454 52.0193 25.1454C52.1027 25.1532 52.1835 25.1583 52.2669 25.1583C52.2669 25.1583 52.2721 25.1583 52.2747 25.1583C52.3738 25.1583 52.4728 25.1506 52.5718 25.1403C52.5979 25.1377 52.6213 25.1325 52.6474 25.13C52.723 25.1196 52.8011 25.1068 52.8741 25.0887C52.9028 25.0836 52.9288 25.0758 52.9575 25.0681C53.0305 25.05 53.1008 25.0268 53.1686 25.0036C53.1947 24.9933 53.2233 24.9856 53.2494 24.9753C53.3224 24.9469 53.3901 24.916 53.4605 24.8825C53.4839 24.8722 53.5048 24.8619 53.5282 24.8516C53.6142 24.8052 53.6976 24.7562 53.7784 24.7021C53.8019 24.6866 53.8253 24.666 53.8488 24.6505C53.9061 24.6093 53.9608 24.568 54.013 24.5242C54.0416 24.4984 54.0703 24.4726 54.1016 24.4469C54.1511 24.403 54.1954 24.3566 54.2397 24.3077C54.2631 24.2819 54.2866 24.2587 54.3101 24.2303C54.3752 24.153 54.4404 24.0731 54.4977 23.9906L54.5055 23.9829Z" fill="#21232F"/>
<path d="M32.9743 14.2134C33.0655 14.2237 33.1568 14.2263 33.248 14.2263C34.7308 14.2263 35.9322 13.038 35.9322 11.5713V2.65503C35.9348 1.18832 34.7334 0 33.2506 0C32.5469 0 31.9059 0.270658 31.4289 0.708866C30.8999 1.19347 30.5663 1.8843 30.5663 2.65503V11.5687C30.5663 12.9426 31.6218 14.0742 32.9769 14.2108L32.9743 14.2134Z" fill="#21232F"/>
</svg>
